{
  "accessors": [
    {
      "bufferView": 2,
      "componentType": 5126,
      "count": 7950,
      "max": [
        25.080165863037109,
        33.987190246582031,
        0.39456844329833984
      ],
      "min": [
        -22.038761138916016,
        -14.933573722839355,
        -28.729970932006836
      ],
      "type": "VEC3"
    },
    {
      "bufferView": 2,
      "byteOffset": 95400,
      "componentType": 5126,
      "count": 7950,
      "max": [
        0.99978399276733398,
        1,
        1
      ],
      "min": [
        -0.99996733665466309,
        -0.99997448921203613,
        -0.99999892711639404
      ],
      "type": "VEC3"
    },
    {
      "bufferView": 3,
      "componentType": 5126,
      "count": 7950,
      "max": [
        0.99984157085418701,
        0.99982208013534546,
        0.99994361400604248,
        1
      ],
      "min": [
        -0.99988842010498047,
        -0.99702739715576172,
        -0.99999964237213135,
        1
      ],
      "type": "VEC4"
    },
    {
      "bufferView": 1,
      "componentType": 5126,
      "count": 7950,
      "max": [
        0.97512322664260864,
        0.99963933229446411
      ],
      "min": [
        0.00036068388726562262,
        0.00036068388726562262
      ],
      "type": "VEC2"
    },
    {
      "bufferView": 0,
      "componentType": 5125,
      "count": 40326,
      "max": [
        7949
      ],
      "min": [
        0
      ],
      "type": "SCALAR"
    }
  ],
  "asset": {
    "extras": {
      "author": "gorzi (https://sketchfab.com/gorzi90)",
      "license": "CC-BY-4.0 (http://creativecommons.org/licenses/by/4.0/)",
      "source": "https://sketchfab.com/3d-models/old-phone-91903199dee5422484d0aa2ea266dd09",
      "title": "Old Phone"
    },
    "generator": "Sketchfab-10.11.2",
    "version": "2.0"
  },
  "bufferViews": [
    {
      "buffer": 0,
      "byteLength": 161304,
      "byteOffset": 0,
      "name": "floatBufferViews",
      "target": 34963
    },
    {
      "buffer": 0,
      "byteLength": 63600,
      "byteOffset": 161304,
      "byteStride": 8,
      "name": "floatBufferViews",
      "target": 34962
    },
    {
      "buffer": 0,
      "byteLength": 190800,
      "byteOffset": 224904,
      "byteStride": 12,
      "name": "floatBufferViews",
      "target": 34962
    },
    {
      "buffer": 0,
      "byteLength": 127200,
      "byteOffset": 415704,
      "byteStride": 16,
      "name": "floatBufferViews",
      "target": 34962
    }
  ],
  "buffers": [
    {
      "byteLength": 542904,
      "uri": "scene.bin"
    }
  ],
  "images": [
    {
      "uri": "textures/phone_baseColor.jpeg"
    },
    {
      "uri": "textures/phone_metallicRoughness.png"
    },
    {
      "uri": "textures/phone_normal.png"
    }
  ],
  "materials": [
    {
      "doubleSided": true,
      "emissiveFactor": [
        0,
        0,
        0
      ],
      "name": "phone",
      "normalTexture": {
        "index": 2,
        "scale": 1,
        "texCoord": 0
      },
      "occlusionTexture": {
        "index": 1,
        "strength": 1,
        "texCoord": 0
      },
      "pbrMetallicRoughness": {
        "baseColorFactor": [
          1,
          1,
          1,
          1
        ],
        "baseColorTexture": {
          "index": 0,
          "texCoord": 0
        },
        "metallicFactor": 0,
        "metallicRoughnessTexture": {
          "index": 1,
          "texCoord": 0
        },
        "roughnessFactor": 0.62796788452535135
      }
    }
  ],
  "meshes": [
    {
      "name": "Plane_phone_0",
      "primitives": [
        {
          "attributes": {
            "NORMAL": 1,
            "POSITION": 0,
            "TANGENT": 2,
            "TEXCOORD_0": 3
          },
          "indices": 4,
          "material": 0,
          "mode": 4
        }
      ]
    }
  ],
  "nodes": [
    {
      "children": [
        1
      ],
      "name": "RootNode (gltf orientation matrix)",
      "rotation": [
        -0.70710678118654746,
        -0,
        -0,
        0.70710678118654757
      ]
    },
    {
      "children": [
        2
      ],
      "name": "RootNode (model correction matrix)"
    },
    {
      "children": [
        3
      ],
      "matrix": [
        1,
        0,
        0,
        0,
        0,
        0,
        1,
        0,
        0,
        -1,
        0,
        0,
        0,
        0,
        0,
        1
      ],
      "name": "bf494b55fbbb46d7903f72dddad5520d.fbx"
    },
    {
      "children": [
        4,
        6
      ],
      "name": "RootNode"
    },
    {
      "children": [
        5
      ],
      "matrix": [
        44.285350839139468,
        -22.201487262154959,
        -86.867140729529325,
        0,
        9.3271641598259603,
        97.50081566829094,
        -20.164199779649302,
        0,
        89.17292980796222,
        0.82754586266917951,
        45.24935090484086,
        0,
        -473.62332153320312,
        282.91632080078125,
        892.1729736328125,
        1
      ],
      "name": "Camera"
    },
    {
      "name": ""
    },
    {
      "children": [
        7
      ],
      "matrix": [
        3.1123935470460653,
        3.2922987805302326,
        -3.2922989515159169,
        0,
        -4.6560145005608193,
        2.2007947538811496,
        -2.2007951613148422,
        0,
        -1.7232230823141814e-07,
        3.9601426841311529,
        3.9601423155551019,
        0,
        26.166715621948242,
        73.514480590820312,
        68.031379699707031,
        1
      ],
      "name": "Plane"
    },
    {
      "mesh": 0,
      "name": "Plane_phone_0"
    }
  ],
  "samplers": [
    {
      "magFilter": 9729,
      "minFilter": 9987,
      "wrapS": 10497,
      "wrapT": 10497
    }
  ],
  "scene": 0,
  "scenes": [
    {
      "name": "OSG_Scene",
      "nodes": [
        0
      ]
    }
  ],
  "textures": [
    {
      "sampler": 0,
      "source": 0
    },
    {
      "sampler": 0,
      "source": 1
    },
    {
      "sampler": 0,
      "source": 2
    }
  ]
}

